<?xml version="1.0" encoding="UTF-8"?>
<svg id="Layer_2" data-name="Layer 2" xmlns="http://www.w3.org/2000/svg" viewBox="0 0 301.95 312.9">
  <defs>
    <style>
      .cls-1 {
        fill: #1d1d1b;
      }
    </style>
  </defs>
  <g id="Vrstva_1" data-name="Vrstva 1">
    <path class="cls-1" d="M169.6,312.9c-.9,0-1.7-.1-2.5-.2-6.3-1.3-12-1.6-18.8-1.8l-10-.3c-11.1-.3-24.2-1.4-27.7-3.6-3.1-1.9-4.2-3-5-3.7-1.3-1.2-2-1.8-5.5-3-1.7-.6-3.6-1.6-5.5-2.5-.8-.4-1.6-.8-2.4-1.2l-5-2.4c-.4-.2-1-.6-1.6-1.1-.5-.4-1.1-.8-1.6-1.1l-.2-.1h-.2c-.2-.1-.5-.1-.7-.2-1.9-.5-3.8-1-4.8-2.1-2.3-2.7-5.1-3.7-7.8-4.7-.8-.3-1.7-.6-2.5-1-.7-.3-1.7-1.1-2.7-1.8-.6-.4-1.2-.8-1.7-1.2-.3-.2-.9-1-1.2-1.6-.4-.6-.8-1.2-1.3-1.7l-9.3-9.6c-.6-.6-1.2-1.1-1.8-1.5-.8-.6-1.5-1.2-2.1-2.1-1-1.4-2.4-2.3-3.8-3.3-1.1-.7-2.1-1.4-2.8-2.2-1.9-2.2-3.7-3.7-6-5.1l-2.3-3.4c-.3-.5-.7-1-1-1.4-1.1-1.4-2-2.7-2.4-4.3-.7-2.6-1.6-4.9-2.7-7.3l-1.2-2.6-2.5-5.1c-.6-1.3-1.6-3.3-2.2-5.1-.1-.2-.1-.4-.2-.7-.5-1.6-1-3.1-2.7-4.5-.2-.2-.5-1-.6-1.5-.1-.3-.2-.6-.3-.9l-1.4-3.6-2.2-2.9c-1.2-5.5-3.3-7.3-5.1-8.9-1.2-1-2.2-1.8-3.1-3.6l-2.6-5.1c-1.3-2.6-1.2-6.2-1.1-9.7.1-2.3.2-4.6-.2-6.7-.1-.4-.2-.8-.2-1.2-.2-.8-.3-1.5-.2-2.2l.6-4.9.3-6.4.1-3.4.2-7.8-.2-3.6c-.1-2.4-.3-4-.4-5.3-.2-2.1-.4-3.5-.2-6.6.4-5.6-.1-6.9-.9-8.2-.3-.4-.4-.8-.4-2.3,0-1.1.4-1.8.8-2.7.3-.5.6-1.1.8-1.8l2.6-7.5c1.8-2,2.6-4,3.4-6.1.3-.7.5-1.4.8-2.1,1.3-2.9,2.8-5.9,4.3-8.7.9-1.6,1.7-3.3,2.6-5,.2-.4.4-.7.6-1.1.7-1.2,1.4-2.4,1.5-4.1l.3-3.6c1.6-2.2,1.8-3.5,2.1-4.9.2-1.2.5-2.5,1.7-4.9l9.1-9.7c2.4-2.5,4.4-5,6.7-7.8l3.4-2.5,3-3.3c3-3.2,6-6.6,9.9-9.2l.3-.2.2-.3c.1-.2.3-.5.4-.7.2-.3.5-.9.6-1l4.9-3.6c1.9-1.4,3.4-3.4,4.4-4.8l2.1-2.9c2.9-4,6.8-5.7,11.3-7.7.5-.2,1-.4,1.4-.6,4.1-1.8,8-3.5,12.4-4.8,2.5-.7,4.9-1.8,7.1-2.8,1.9-.9,3.7-1.7,5.4-2.2,1.5-.5,2.8-1.1,4.1-1.7.6-.3,1.3-.6,2-.9.6-.2,1.5-.3,2.1-.3h2.5c.5,0,.9,0,1.2-.1,1.6-.2,2.9-.2,4.1-.3,2.9-.1,5-.2,7.7-2,1.8-.3,2.9-.4,4.2-.4,1.2-.1,2.6-.1,4.8-.4l10.8-1.4c2.4-.3,4.4-.5,6-.5,2.8,0,3.7.5,4.7,1s2.2,1.2,4.8,1.2c.6,0,1.2,0,1.9-.1h.3c.8,0,1.5.2,2.4.4.8.2,1.7.5,2.6.5l6.3.5c.8.3,2.4.7,6.3,1.7,4,1,5.4,1.3,6,1.4h0c1,.3,2.1.4,3.1.5,1.3.1,2.6.3,3.6.7,2.3.9,4.2,1.3,6.4,1.6,2.1.3,3.1.4,3.7.4q.9.1,3.4,1c.7.2,1.5.5,2.5.9.1.1.2.1.3.2.2.1.5.3.9.5.7.3,1.7.8,3,1.5,2.3,1.1,5.1,2.5,6.9,3.3,1,.5,1.8.9,1.9.9l3.9,2c1.9,1,3.5,2.3,5.1,3.8.8.7,1.6,1.4,2.4,2,1.4,1.1,2.8,1.4,3.9,1.7,1.6.4,3.3.7,6.2,3.8l2.7,2.9c1.3,1.4,11.2,8.3,13.3,9.5,2.8,1.7,4.4,2.7,6,5.5l.3.6.7.1c3.6.7,3.9,1.9,4.5,4,.5,1.6,1,3.7,3.1,5.6.6.5.8,1.3,1,2.2.2.8.4,1.6.9,2.4.6.9,1.2,1.9,1.8,2.8,1.4,2.2,2.8,4.2,3.9,6.5.8,1.7,1.2,3.1,1.6,4.7.6,2.3,1.2,4.8,3.3,8,.4.6.7,1.1,1.1,1.6.7,1.1,1.5,2.2,2.1,3.3,1.2,2.2,1.3,3.2,1.5,4.2.1.8.2,1.7.9,3,1.2,2.1,2.1,4.1,3,6.2.3.6.5,1.2.8,1.8l2.4,5.2c1.2,2.5,1,5.7.8,8.8v.7l-.5,10.9-.4,7.6c-.1.9-.1,1.8-.1,2.7-.1,2.3-.2,4.5-.5,6.7-.6,4.7-.5,6.4-.3,8.4.1,1.3.2,2.8.1,5.6l-.3,10.4-.4,6.8c-.2,2.8-.6,4.7-1,6.4-.4,1.5-.7,2.9-.7,4.5l-.1,5v1c0,1.4-.1,2.7,0,4.2.1,2-.2,3-.6,4.2-.3,1-.7,2.2-.7,3.9l-.2,6.2-1.3,8.7c-.1.6-.1,1.1-.2,1.6-.1,1.5-.2,2.2-1.2,3-4.5,3.8-9.1,10.6-11.4,14.3-.7,1.1-.9,2.3-1.1,3.5-.2,1-.3,2.1-.8,2.6-3.5,1.6-5,5-5.9,6.8-.1.3-.3.7-.4.8l-6.4,7.1c-.3.3-.5.6-.8.9-1,1.2-2,2.3-3.3,3.3-1.1.8-1.6,2-2,2.9-.2.4-.3.8-.5,1.1-.6,1-1.6,1.9-2.6,2.9-.9.8-1.8,1.6-2.5,2.6-2.3,2.9-4.1,3.7-5.8,4.4-.6.3-1.2.5-1.8.9-2.5,1.4-3.1,1.5-3.5,1.6-1,.2-1.8.4-5.5,2.8-1.1.7-2.3,1.2-3.5,1.7-1.3.5-2.6,1.1-3.9,1.9l-6.1,4c-.6.4-1.3.8-1.9,1.1-1,.5-1.9,1-3,1.9-.5.4-1.3.7-2.1,1.1-.7.3-1.3.6-2,.9-.6.4-1.4.5-2.4.5-.5.1-1,.1-1.6.2-4.1.8-8.1,1.9-12.1,3.2l-4.2,1.4c-.9.3-1.7.6-2.5.9-1.7.7-3.5,1.3-5.2,1.6l-4.8.8c-.2,0-.4.1-.6.1-1.1.2-2.2.3-3.5.9l-4,1.7c-1.3,1.2-3.9,1.7-6.1,1.7h0Z"/>
  </g>
</svg>